<?xml version="1.0" encoding="us-ascii" standalone="no"?><svg xmlns="http://www.w3.org/2000/svg" xmlns:xlink="http://www.w3.org/1999/xlink" contentStyleType="text/css" height="1247px" preserveAspectRatio="none" style="width:1351px;height:1247px;background:#FFFFFF;" version="1.1" viewBox="0 0 1351 1247" width="1351px" zoomAndPan="magnify"><defs/><g><!--cluster XML Analyzer--><g id="cluster_XML Analyzer"><rect fill="none" height="702" rx="2.5" ry="2.5" style="stroke:#181818;stroke-width:1.0;" width="1213.54" x="132" y="287.86"/><text fill="#000000" font-family="sans-serif" font-size="14" font-weight="bold" lengthAdjust="spacing" textLength="97" x="690.27" y="303.3952">XML Analyzer</text></g><g id="elem_UC_OpenXml"><ellipse cx="321.0698" cy="601.864" fill="#F1F1F1" rx="87.2698" ry="19.854" style="stroke:#181818;stroke-width:0.5;"/><text fill="#000000" font-family="sans-serif" font-size="14" lengthAdjust="spacing" textLength="135" x="253.5698" y="605.155">&#1042;&#1110;&#1076;&#1082;&#1088;&#1080;&#1090;&#1080; XML &#1092;&#1072;&#1081;&#1083;</text></g><g id="elem_UC_OpenXsl"><ellipse cx="321.065" cy="675.865" fill="#F1F1F1" rx="83.375" ry="19.075" style="stroke:#181818;stroke-width:0.5;"/><text fill="#000000" font-family="sans-serif" font-size="14" lengthAdjust="spacing" textLength="126" x="258.065" y="679.156">&#1042;&#1080;&#1073;&#1088;&#1072;&#1090;&#1080; XSL &#1092;&#1072;&#1081;&#1083;</text></g><g id="elem_UC_SelectStrategy"><ellipse cx="321.0656" cy="753.8551" fill="#F1F1F1" rx="107.4756" ry="23.8951" style="stroke:#181818;stroke-width:0.5;"/><text fill="#000000" font-family="sans-serif" font-size="14" lengthAdjust="spacing" textLength="180" x="231.0656" y="757.1461">&#1054;&#1073;&#1088;&#1072;&#1090;&#1080; &#1089;&#1090;&#1088;&#1072;&#1090;&#1077;&#1075;&#1110;&#1102; &#1087;&#1086;&#1096;&#1091;&#1082;&#1091;</text></g><g id="elem_UC_FilterByAttributes"><ellipse cx="1182.989" cy="376.8598" fill="#F1F1F1" rx="127.049" ry="27.8098" style="stroke:#181818;stroke-width:0.5;"/><text fill="#000000" font-family="sans-serif" font-size="14" lengthAdjust="spacing" textLength="222" x="1071.989" y="380.1508">&#1060;&#1110;&#1083;&#1100;&#1090;&#1088;&#1091;&#1074;&#1072;&#1090;&#1080; &#1076;&#1072;&#1085;&#1110; &#1079;&#1072; &#1072;&#1090;&#1088;&#1080;&#1073;&#1091;&#1090;&#1072;&#1084;&#1080;</text></g><g id="elem_UC_FilterByKeyword"><ellipse cx="1182.9858" cy="575.8592" fill="#F1F1F1" rx="146.5458" ry="31.7092" style="stroke:#181818;stroke-width:0.5;"/><text fill="#000000" font-family="sans-serif" font-size="14" lengthAdjust="spacing" textLength="263" x="1051.4858" y="579.1502">&#1060;&#1110;&#1083;&#1100;&#1090;&#1088;&#1091;&#1074;&#1072;&#1090;&#1080; &#1076;&#1072;&#1085;&#1110; &#1079;&#1072; &#1082;&#1083;&#1102;&#1095;&#1086;&#1074;&#1080;&#1084; &#1089;&#1083;&#1086;&#1074;&#1086;&#1084;</text></g><g id="elem_UC_Analyze"><ellipse cx="765.2885" cy="653.8637" fill="#F1F1F1" rx="79.9685" ry="18.3937" style="stroke:#181818;stroke-width:0.5;"/><text fill="#000000" font-family="sans-serif" font-size="14" lengthAdjust="spacing" textLength="118" x="706.2885" y="657.1547">&#1040;&#1085;&#1072;&#1083;&#1110;&#1079;&#1091;&#1074;&#1072;&#1090;&#1080; &#1076;&#1072;&#1085;&#1110;</text></g><g id="elem_UC_SaveToDrive"><ellipse cx="321.071" cy="849.8642" fill="#F1F1F1" rx="173.071" ry="37.0142" style="stroke:#181818;stroke-width:0.5;"/><text fill="#000000" font-family="sans-serif" font-size="14" lengthAdjust="spacing" textLength="318" x="162.071" y="853.1552">&#1047;&#1073;&#1077;&#1088;&#1077;&#1075;&#1090;&#1080; &#1074;&#1110;&#1076;&#1092;&#1110;&#1083;&#1100;&#1090;&#1088;&#1086;&#1074;&#1072;&#1085;&#1110; &#1076;&#1072;&#1085;&#1110; &#1085;&#1072; Google Drive</text></g><g id="elem_UC_SaveLocal"><ellipse cx="765.293" cy="567.8606" fill="#F1F1F1" rx="152.303" ry="32.8606" style="stroke:#181818;stroke-width:0.5;"/><text fill="#000000" font-family="sans-serif" font-size="14" lengthAdjust="spacing" textLength="275" x="627.793" y="571.1516">&#1047;&#1073;&#1077;&#1088;&#1077;&#1075;&#1090;&#1080; &#1074;&#1110;&#1076;&#1092;&#1110;&#1083;&#1100;&#1090;&#1088;&#1086;&#1074;&#1072;&#1085;&#1110; &#1076;&#1072;&#1085;&#1110; &#1083;&#1086;&#1082;&#1072;&#1083;&#1100;&#1085;&#1086;</text></g><g id="elem_UC_TransformToHtml"><ellipse cx="321.0691" cy="947.8598" fill="#F1F1F1" rx="118.5991" ry="26.1198" style="stroke:#181818;stroke-width:0.5;"/><text fill="#000000" font-family="sans-serif" font-size="14" lengthAdjust="spacing" textLength="204" x="219.0691" y="951.1508">&#1058;&#1088;&#1072;&#1085;&#1089;&#1092;&#1086;&#1088;&#1084;&#1091;&#1074;&#1072;&#1090;&#1080; XML &#1091; HTML</text></g><g id="elem_UC_OpenHtml"><ellipse cx="765.2915" cy="939.8603" fill="#F1F1F1" rx="156.1515" ry="33.6303" style="stroke:#181818;stroke-width:0.5;"/><text fill="#000000" font-family="sans-serif" font-size="14" lengthAdjust="spacing" textLength="283" x="623.7915" y="943.1513">&#1042;&#1110;&#1076;&#1082;&#1088;&#1080;&#1090;&#1080; &#1079;&#1075;&#1077;&#1085;&#1077;&#1088;&#1086;&#1074;&#1072;&#1085;&#1080;&#1081; HTML &#1091; &#1073;&#1088;&#1072;&#1091;&#1079;&#1077;&#1088;&#1110;</text></g><g id="elem_UC_Clear"><ellipse cx="321.0747" cy="350.8629" fill="#F1F1F1" rx="128.4647" ry="28.0929" style="stroke:#181818;stroke-width:0.5;"/><text fill="#000000" font-family="sans-serif" font-size="14" lengthAdjust="spacing" textLength="225" x="208.5747" y="354.154">&#1054;&#1095;&#1080;&#1089;&#1090;&#1080;&#1090;&#1080; &#1092;&#1110;&#1083;&#1100;&#1090;&#1088;&#1080; &#1090;&#1072; &#1088;&#1077;&#1079;&#1091;&#1083;&#1100;&#1090;&#1072;&#1090;&#1080;</text></g><g id="elem_UC_ViewResults"><ellipse cx="321.0663" cy="439.8633" fill="#F1F1F1" rx="119.0663" ry="26.2133" style="stroke:#181818;stroke-width:0.5;"/><text fill="#000000" font-family="sans-serif" font-size="14" lengthAdjust="spacing" textLength="205" x="218.5663" y="443.1543">&#1055;&#1077;&#1088;&#1077;&#1075;&#1083;&#1103;&#1076; &#1088;&#1077;&#1079;&#1091;&#1083;&#1100;&#1090;&#1072;&#1090;&#1110;&#1074; &#1087;&#1086;&#1096;&#1091;&#1082;&#1091;</text></g><g id="elem_UC_ViewLog"><ellipse cx="321.0724" cy="523.8625" fill="#F1F1F1" rx="103.8124" ry="23.1625" style="stroke:#181818;stroke-width:0.5;"/><text fill="#000000" font-family="sans-serif" font-size="14" lengthAdjust="spacing" textLength="172" x="235.0724" y="527.1535">&#1055;&#1077;&#1088;&#1077;&#1075;&#1083;&#1103;&#1076; &#1078;&#1091;&#1088;&#1085;&#1072;&#1083;&#1091; &#1087;&#1086;&#1076;&#1110;&#1081;</text></g><!--entity User--><g id="elem_User"><ellipse cx="45.5" cy="646.11" fill="#F1F1F1" rx="8" ry="8" style="stroke:#181818;stroke-width:0.5;"/><path d="M45.5,654.11 L45.5,681.11 M32.5,662.11 L58.5,662.11 M45.5,681.11 L32.5,696.11 M45.5,681.11 L58.5,696.11 " fill="none" style="stroke:#181818;stroke-width:0.5;"/><text fill="#000000" font-family="sans-serif" font-size="14" lengthAdjust="spacing" textLength="79" x="6" y="711.1452">&#1050;&#1086;&#1088;&#1080;&#1089;&#1090;&#1091;&#1074;&#1072;&#1095;</text></g><!--link User to UC_OpenXml--><g id="link_User_UC_OpenXml"><path d="M85.11,655.01 C97.29,649.1 110.96,643.12 124,638.86 C162.69,626.21 201.2447,618.3235 238.0447,612.4635 " fill="none" id="User-to-UC_OpenXml" style="stroke:#181818;stroke-width:1.0;"/><polygon fill="#181818" points="243.97,611.52,234.453,608.9851,239.0322,612.3063,235.711,616.8856,243.97,611.52" style="stroke:#181818;stroke-width:1.0;"/></g><!--link User to UC_OpenXsl--><g id="link_User_UC_OpenXsl"><path d="M85.41,675.86 C124.79,675.86 180.92,675.86 231.35,675.86 " fill="none" id="User-to-UC_OpenXsl" style="stroke:#181818;stroke-width:1.0;"/><polygon fill="#181818" points="237.35,675.86,228.35,671.86,232.35,675.86,228.35,679.86,237.35,675.86" style="stroke:#181818;stroke-width:1.0;"/></g><!--link User to UC_SelectStrategy--><g id="link_User_UC_SelectStrategy"><path d="M85.17,696.55 C97.34,702.45 111,708.47 124,712.86 C158.59,724.54 191.9071,732.4114 226.1071,738.9614 " fill="none" id="User-to-UC_SelectStrategy" style="stroke:#181818;stroke-width:1.0;"/><polygon fill="#181818" points="232,740.09,223.9131,734.4685,227.0893,739.1495,222.4082,742.3257,232,740.09" style="stroke:#181818;stroke-width:1.0;"/></g><!--link User to UC_FilterByAttributes--><g id="link_User_UC_FilterByAttributes"><path d="M47.31,637.35 C50.25,541.96 63.62,299 124,251.86 C438.89,6 970.3234,261.1638 1130.3634,347.7938 " fill="none" id="User-to-UC_FilterByAttributes" style="stroke:#181818;stroke-width:1.0;"/><polygon fill="#181818" points="1135.64,350.65,1129.6293,342.848,1131.2429,348.2698,1125.821,349.8834,1135.64,350.65" style="stroke:#181818;stroke-width:1.0;"/></g><!--link User to UC_FilterByKeyword--><g id="link_User_UC_FilterByKeyword"><path d="M48.61,637.3 C54.22,550.98 72.74,346.51 124,304.86 C251.66,201.11 332.52,274.17 494.14,304.86 C741.61,351.85 1008.5861,483.2449 1122.2061,543.3349 " fill="none" id="User-to-UC_FilterByKeyword" style="stroke:#181818;stroke-width:1.0;"/><polygon fill="#181818" points="1127.51,546.14,1121.4242,538.3964,1123.0901,543.8024,1117.6841,545.4683,1127.51,546.14" style="stroke:#181818;stroke-width:1.0;"/></g><!--link User to UC_Analyze--><g id="link_User_UC_Analyze"><path d="M47.51,714.33 C50.69,801.52 63.61,1009.96 115,1052.86 C194.18,1118.95 499.92,1118.9 579.14,1052.86 C636.06,1005.41 581.5,957.61 609.14,888.86 C644.79,800.18 712.6063,714.4719 744.4963,676.7519 " fill="none" id="User-to-UC_Analyze" style="stroke:#181818;stroke-width:1.0;"/><polygon fill="#181818" points="748.37,672.17,739.5048,676.4604,745.1419,675.9883,745.614,681.6254,748.37,672.17" style="stroke:#181818;stroke-width:1.0;"/></g><!--link User to UC_SaveToDrive--><g id="link_User_UC_SaveToDrive"><path d="M62.68,714.43 C75.61,740.75 96.18,774.42 124,794.86 C142.45,808.41 158.4449,816.6435 180.5149,824.3435 " fill="none" id="User-to-UC_SaveToDrive" style="stroke:#181818;stroke-width:1.0;"/><polygon fill="#181818" points="186.18,826.32,179,819.5785,181.4591,824.6729,176.3647,827.132,186.18,826.32" style="stroke:#181818;stroke-width:1.0;"/></g><!--link User to UC_SaveLocal--><g id="link_User_UC_SaveLocal"><path d="M50.13,714.46 C58.21,791.04 80.5,957.74 124,991.86 C253.44,1093.39 333.6,1027.75 494.14,991.86 C534.89,982.75 555.21,986.07 579.14,951.86 C621.85,890.79 562.61,676.07 609.14,617.86 C619.13,605.37 626.8749,598.5958 641.2849,591.5158 " fill="none" id="User-to-UC_SaveLocal" style="stroke:#181818;stroke-width:1.0;"/><polygon fill="#181818" points="646.67,588.87,636.8284,589.2487,642.1824,591.0749,640.3562,596.4288,646.67,588.87" style="stroke:#181818;stroke-width:1.0;"/></g><!--link User to UC_TransformToHtml--><g id="link_User_UC_TransformToHtml"><path d="M48.35,714.53 C52.97,765.82 68.96,855.59 124,904.86 C146.2,924.73 169.5783,934.8493 198.6883,941.2093 " fill="none" id="User-to-UC_TransformToHtml" style="stroke:#181818;stroke-width:1.0;"/><polygon fill="#181818" points="204.55,942.49,196.6112,936.6612,199.6652,941.4228,194.9036,944.4768,204.55,942.49" style="stroke:#181818;stroke-width:1.0;"/></g><!--link User to UC_OpenHtml--><g id="link_User_UC_OpenHtml"><path d="M47.31,714.41 C50.24,811.21 63.6,1060.36 124,1110.86 C279.41,1240.79 398.83,1179.16 579.14,1086.86 C637.96,1056.75 691.68,1010.5025 726.68,977.2525 " fill="none" id="User-to-UC_OpenHtml" style="stroke:#181818;stroke-width:1.0;"/><polygon fill="#181818" points="731.03,973.12,721.75,976.4187,727.405,976.5637,727.26,982.2187,731.03,973.12" style="stroke:#181818;stroke-width:1.0;"/></g><!--link User to UC_Clear--><g id="link_User_UC_Clear"><path d="M52.22,637.31 C63.18,568.63 89.19,429.15 124,395.86 C143.88,376.85 164.2707,366.7706 191.0207,359.8606 " fill="none" id="User-to-UC_Clear" style="stroke:#181818;stroke-width:1.0;"/><polygon fill="#181818" points="196.83,358.36,187.1156,356.7381,191.9889,359.6105,189.1165,364.4838,196.83,358.36" style="stroke:#181818;stroke-width:1.0;"/></g><!--link User to UC_ViewResults--><g id="link_User_UC_ViewResults"><path d="M51.2,637.41 C58.68,593.34 77.56,522.16 124,482.86 C146.68,463.66 170.1295,453.7664 199.1495,447.3964 " fill="none" id="User-to-UC_ViewResults" style="stroke:#181818;stroke-width:1.0;"/><polygon fill="#181818" points="205.01,446.11,195.3617,444.1326,200.1263,447.182,197.0769,451.9466,205.01,446.11" style="stroke:#181818;stroke-width:1.0;"/></g><!--link User to UC_ViewLog--><g id="link_User_UC_ViewLog"><path d="M64.04,637.17 C77.12,612.7 97.33,582.47 124,564.86 C152.37,546.12 181.749,536.7493 214.539,531.0393 " fill="none" id="User-to-UC_ViewLog" style="stroke:#181818;stroke-width:1.0;"/><polygon fill="#181818" points="220.45,530.01,210.8972,527.6133,215.5241,530.8678,212.2697,535.4947,220.45,530.01" style="stroke:#181818;stroke-width:1.0;"/></g><!--link UC_Analyze to UC_FilterByAttributes--><g id="link_UC_Analyze_UC_FilterByAttributes"><path d="M837,645.4 C864.49,640.11 895.55,631.58 921.45,617.86 C924.88,616.04 1080.7283,471.1282 1148.1683,408.3482 " fill="none" id="UC_Analyze-to-UC_FilterByAttributes" style="stroke:#181818;stroke-width:1.0;"/><polygon fill="#181818" points="1152.56,404.26,1143.2471,407.4645,1148.9003,407.6668,1148.698,413.3201,1152.56,404.26" style="stroke:#181818;stroke-width:1.0;"/><text fill="#000000" font-family="sans-serif" font-size="13" lengthAdjust="spacing" textLength="53" x="952.45" y="542.1884">includes</text></g><!--link UC_Analyze to UC_FilterByKeyword--><g id="link_UC_Analyze_UC_FilterByKeyword"><path d="M831.11,643.05 C879.49,634.85 947.19,623.11 1006.45,611.86 C1029.22,607.53 1047.7212,603.8797 1070.8512,599.1597 " fill="none" id="UC_Analyze-to-UC_FilterByKeyword" style="stroke:#181818;stroke-width:1.0;"/><polygon fill="#181818" points="1076.73,597.96,1067.112,595.8403,1071.831,598.9597,1068.7115,603.6787,1076.73,597.96" style="stroke:#181818;stroke-width:1.0;"/><text fill="#000000" font-family="sans-serif" font-size="13" lengthAdjust="spacing" textLength="53" x="952.45" y="608.4284">includes</text></g><!--link UC_ViewResults to UC_Analyze--><g id="link_UC_ViewResults_UC_Analyze"><path d="M433.73,448.59 C456.3,455.22 478.01,465.9 494.14,482.86 C541.6,532.75 472.71,589.07 524.14,634.86 C573.5,678.8 647.4881,676.7048 701.4381,667.9148 " fill="none" id="UC_ViewResults-to-UC_Analyze" style="stroke:#181818;stroke-width:1.0;"/><polygon fill="#181818" points="707.36,666.95,697.8339,664.4493,702.4251,667.754,699.1204,672.3452,707.36,666.95" style="stroke:#181818;stroke-width:1.0;"/><text fill="#000000" font-family="sans-serif" font-size="13" lengthAdjust="spacing" textLength="53" x="525.14" y="631.4284">includes</text></g><!--link UC_SaveToDrive to UC_SaveLocal--><g id="link_UC_SaveToDrive_UC_SaveLocal"><path d="M452.86,825.52 C468.49,817.89 482.86,807.91 494.14,794.86 C547.47,733.17 467.21,672.23 524.14,613.86 C547.71,589.7 573.9297,577.3973 606.9797,570.1373 " fill="none" id="UC_SaveToDrive-to-UC_SaveLocal" style="stroke:#181818;stroke-width:1.0;"/><polygon fill="#181818" points="612.84,568.85,603.1914,566.8741,607.9564,569.9228,604.9078,574.6878,612.84,568.85" style="stroke:#181818;stroke-width:1.0;"/><text fill="#000000" font-family="sans-serif" font-size="13" lengthAdjust="spacing" textLength="50" x="526.64" y="575.7684">extends</text></g><!--link UC_TransformToHtml to UC_OpenHtml--><g id="link_UC_TransformToHtml_UC_OpenHtml"><path d="M439.71,945.73 C491.78,944.79 547.731,943.7787 603.491,942.7687 " fill="none" id="UC_TransformToHtml-to-UC_OpenHtml" style="stroke:#181818;stroke-width:1.0;"/><polygon fill="#181818" points="609.49,942.66,600.419,938.8236,604.4908,942.7506,600.5639,946.8223,609.49,942.66" style="stroke:#181818;stroke-width:1.0;"/><text fill="#000000" font-family="sans-serif" font-size="13" lengthAdjust="spacing" textLength="53" x="525.14" y="939.9484">includes</text></g><!--SRC=[hLJTQXD15BxVfpZalY_WXL0hMZ15C55w9-Dc6fTkTiFif3MAq7OBzQ9KyI85Bog83x1DMvj_N-7C6tbcThUPJ584CHU1ENFETyxtdMysv3iIP0mYQBwLq0W4zsKGHrwo6qHj9bWBsipVPKrUazsGWxvcKJFadiTy6Gkeu3USgGCSg4Drf5BiOwPEAi0IU9bmuNb5DLIsjwgm7h6m-vwB2dpmW7xchvDmdoMKWLzL3wznPD2ES02wH1rZXaCSvv0Rhv-tURJT2jrA7E0brMLvNUsUkiIjkx2g387yS8DNggVE07yJjq_4QgJI4gZ6GzAW9WMJlDbry7uIWx4wrK255XgPI6KuLJt0Myn01pL5QftITOOJ79JWJu9GSl6ekowb2Dvq94_-fS68KixK2SueOO0JOePZSvZXnEtqZ7VtOz5msdp1AI6EgTdjYZObHh5Ef_OSB_6626eHJLLVhrKTpoStinG3tqrE3U5f79EruB48zlYTtcoFrsCJ-Z-Dj1GZm-wKcixiFjNOPwv5VcXFKEKXEKeRVM89OWoQmcPzgrh2r0MBafrOjEhnfbpsgUDmsjSLpJyrF8fXQML30wcX2t-cb4WfS-crdLVWNz3MpKiiy1V4e2FP3OnYUgqcdZCfOJT2peI3-RqKcGe-u_MAUkhHN_bMNWLy_mLFEg5C_WAAl-Wn71IkImqOhRA7Gnkg6ZUzZvwdFoomjlRG_XminPB5cFDgxQiLRsxLTVbGxBlo0InqilpgndD_sL7NBYwFfM2-8JjYY-p6jMBUVD3xASC3228_x3Gq-tlp2msSP6i0HnWdqP9cIHLAvUyaZnecqv75LSJ6_GC0]--></g></svg>